# xmcd CD database file
#
# Track frame offsets:
#	150
#	24607
#	43520
#	65775
#	90462
#	107847
#	132402
#	152282
#	174985
#	196755
#	218322
#
# Disc length: 3175 seconds
#
# Revision: 2
# Processed by: cddbd v1.4b41PL1 Copyright (c) Steve Scherf et al.
# Submitted via: Feurio! 1.52 - http://www.feurio.com
#
DISCID=860c650b
DTITLE=Bert Robinson - No More Cold Nights
DYEAR=1900
DGENRE=
TTITLE0=Heart Of Gold
TTITLE1=Won't You Be My Lady
TTITLE2=Just A Little Lovev
TTITLE3=Never Gonna Give You Up
TTITLE4=Tough enough
TTITLE5=All The Way With You
TTITLE6=No More Cold Nights
TTITLE7=You Turn Me Out
TTITLE8=Just Begun To Know You
TTITLE9=Burning Inside  Your Love
TTITLE10=Still Waiting
EXTD=
EXTT0=
EXTT1=
EXTT2=
EXTT3=
EXTT4=
EXTT5=
EXTT6=
EXTT7=
EXTT8=
EXTT9=
EXTT10=
PLAYORDER=
